<?xml version="1.0" encoding="UTF-8"?><svg xmlns="http://www.w3.org/2000/svg" viewBox="0 0 273.71 488.15"><defs><style>.d{fill:#061a1a;}</style></defs><g id="a"/><g id="b"><g id="c"><g><path class="d" d="M271.35,477.64l.92-161.56,.92-160.74,.52-90.67c.03-5.49-4.85-10.75-10.5-10.5s-10.47,4.61-10.5,10.5l-.92,161.56-.92,160.74-.52,90.67c-.03,5.49,4.85,10.75,10.5,10.5s10.47-4.61,10.5-10.5h0Z"/><path class="d" d="M262.11,54.28c-20.42,2.16-40.88,3.97-61.36,5.44-20.48,1.47-40.99,2.59-61.51,3.36-11.58,.44-23.17,.76-34.76,.98-2.72,.05-5.49,1.14-7.42,3.08-1.82,1.82-3.19,4.81-3.08,7.42,.25,5.6,4.62,10.61,10.5,10.5,20.53-.39,41.06-1.11,61.56-2.19s40.99-2.5,61.45-4.27c11.55-1,23.09-2.11,34.62-3.33,2.86-.3,5.32-.97,7.42-3.08,1.82-1.82,3.19-4.81,3.08-7.42s-1.01-5.53-3.08-7.42c-1.93-1.77-4.71-3.36-7.42-3.08h0Z"/><path class="d" d="M161.67,142.98c-18.98-11.52-37.96-23.03-56.94-34.55-18.98-11.52-37.96-23.03-56.94-34.55L15.8,54.48v18.13c8.99-4.18,18.06-8.19,27.19-12.06l-2.51,1.06c15.52-6.55,31.23-12.64,47.1-18.25,15.8-5.59,31.78-10.7,47.88-15.34,9.15-2.63,18.35-5.11,27.58-7.43,5.33-1.34,9.05-7.6,7.33-12.92s-7.21-8.77-12.92-7.33c-20.15,5.07-40.11,10.88-59.83,17.42-19.72,6.54-39.2,13.81-58.38,21.78-11.45,4.76-22.81,9.72-34.06,14.94-3.26,1.51-5.2,5.64-5.2,9.07,0,3.75,2.02,7.14,5.2,9.07,18.98,11.52,37.96,23.03,56.94,34.55l56.94,34.55,31.99,19.41c4.7,2.85,11.75,1.19,14.37-3.77s1.25-11.32-3.77-14.37h0Z"/></g></g></g></svg>