<?xml version="1.0" encoding="UTF-8"?><svg xmlns="http://www.w3.org/2000/svg" viewBox="0 0 303.44 110.96"><defs><style>.d{fill:#061a1a;}</style></defs><g id="a"/><g id="b"><g id="c"><g><path class="d" d="M7.61,71.73c7.45-1.2,14.9-2.33,22.37-3.4,1.79-.25,3.57-.5,5.36-.75,.97-.13,1.95-.27,2.92-.4,.32-.04,.65-.09,.97-.13-1.59,.21,.56-.07,.84-.11,3.74-.5,7.48-.98,11.22-1.44,14.81-1.83,29.65-3.38,44.52-4.67,29.9-2.59,59.89-4.09,89.89-4.49,16.89-.23,33.78-.1,50.66,.37,3.14,.09,6.14-2.82,6-6s-2.64-5.91-6-6c-30.16-.83-60.35-.57-90.49,.81s-60.23,3.86-90.19,7.45c-17.14,2.05-34.24,4.45-51.28,7.19-3.11,.5-5.11,4.53-4.19,7.38,1.09,3.37,4.05,4.73,7.38,4.19h0Z"/><path class="d" d="M216.68,11.12c20.27,11.1,40.46,22.34,60.57,33.71,5.75,3.25,11.49,6.51,17.22,9.78v-10.36c-22.44,13.45-44.41,27.68-65.85,42.67-6.01,4.2-11.99,8.47-17.92,12.79-1.3,.95-2.32,1.98-2.76,3.59-.4,1.44-.22,3.35,.6,4.62,1.62,2.51,5.5,4.13,8.21,2.15,21.15-15.4,42.83-30.07,65-43.96,6.22-3.89,12.48-7.73,18.77-11.5,3.82-2.29,3.96-8.1,0-10.36-20.07-11.45-40.22-22.77-60.44-33.95-5.78-3.19-11.56-6.38-17.35-9.55-2.75-1.51-6.67-.77-8.21,2.15-1.48,2.81-.79,6.6,2.15,8.21h0Z"/></g></g></g></svg>