<?xml version="1.0" encoding="UTF-8"?><svg xmlns="http://www.w3.org/2000/svg" viewBox="0 0 680 134.35"><defs><style>.d{fill:#ffcdd1;}</style></defs><g id="a"/><g id="b"><g id="c"><g><path class="d" d="M668.28,4.32c-4.07,19.7-24.42,28-42.11,31.5-22.51,4.46-45.82,6.24-68.71,7.24-23.61,1.04-47.26,.62-70.83-1.13-23.93-1.78-47.75-4.72-71.65-6.89-47.31-4.29-94.83-6.21-142.33-6.21s-95.48,1.96-143.09,5.42c-11.65,.85-23.31,1.71-34.94,2.82-10.17,.97-20.49,2.23-30.21,5.52-18.36,6.2-34.62,20.68-36.4,40.97-.39,4.44,.21,9.01,1.64,13.22,2.47,7.27,14.06,4.15,11.57-3.19-5.79-17.09,8.9-32.83,23.87-38.53,9.28-3.53,19.15-4.99,28.99-5.94,11.39-1.1,22.81-1.95,34.22-2.78,47.19-3.46,94.5-5.44,141.83-5.51,47.5-.07,95.02,1.78,142.34,5.98,23.48,2.09,46.88,4.95,70.38,6.82s47.22,2.46,70.85,1.57c23.24-.87,46.55-2.98,69.51-6.72,19.76-3.22,40.47-10.21,51.54-28.16,2.42-3.92,4.17-8.31,5.11-12.82,1.56-7.54-10.01-10.76-11.57-3.19h0Z"/><path class="d" d="M1.74,93.82c6.42,5.21,12.27,11.1,17.43,17.56,.2,.26,1.44,1.74,.36,.44,.27,.32,.51,.67,.76,1,.67,.9,1.33,1.8,1.98,2.72,1.13,1.6,2.22,3.23,3.27,4.89,2.25,3.55,4.29,7.23,6.13,11.01,1.04,2.13,3.78,3.16,5.98,2.86,2.41-.32,4.24-1.99,4.99-4.3,.55-1.69,1.13-3.36,1.77-5.02,.32-.83,.64-1.65,.98-2.47,.08-.19,.16-.38,.24-.57,0,0-.48,1.11-.2,.49,.22-.5,.44-1,.66-1.5,1.45-3.24,3.08-6.4,4.85-9.47s3.79-6.17,5.91-9.09c.47-.65,1.06-1.28,1.47-1.97,0,0-.73,.93-.31,.4,.17-.21,.34-.43,.51-.64,.3-.37,.6-.75,.9-1.12,1.12-1.38,2.28-2.72,3.47-4.04,2.75-3.04,5.67-5.91,8.76-8.6,2.37-2.07,2.28-6.39,0-8.49-2.53-2.32-5.96-2.21-8.49,0-11.34,9.91-20.69,22.34-27,36.02-1.93,4.19-3.65,8.48-5.07,12.87l10.97-1.43c-7.52-15.4-18.49-29.24-31.8-40.05-1.27-1.04-2.54-1.76-4.24-1.76-1.47,0-3.23,.65-4.24,1.76-2.01,2.19-2.6,6.37,0,8.49h0Z"/></g></g></g></svg>